<?xml version="1.0" encoding="UTF-8" standalone="no"?>
<!DOCTYPE svg PUBLIC "-//W3C//DTD SVG 1.1//EN" "http://www.w3.org/Graphics/SVG/1.1/DTD/svg11.dtd">
<svg xmlns="http://www.w3.org/2000/svg" version="1.1" viewBox="0.00 0.00 1110.00 1389.00">
  <g stroke-width="2.00" fill="none" stroke-linecap="butt">
    <path stroke="#898b8a" vector-effect="non-scaling-stroke" d="
  M 607.12 203.06
  A 0.27 0.27 0.0 0 1 607.08 203.57
  Q 604.49 204.12 602.15 205.03
  Q 600.33 205.75 598.19 206.34
  Q 581.72 210.92 564.03 216.18
  Q 530.68 226.09 507.64 236.43
  C 496.17 241.58 485.10 247.53 475.78 255.99
  Q 461.33 269.12 463.32 287.77
  Q 464.16 295.67 468.12 301.71
  C 475.37 312.76 486.80 321.07 498.14 328.12
  C 516.77 339.69 535.76 348.80 556.60 359.32
  Q 567.51 364.83 576.61 370.52
  C 586.03 376.42 593.65 383.09 596.54 394.04
  C 600.23 408.03 586.78 420.62 575.33 426.55
  C 563.18 432.85 548.57 438.04 534.80 442.81
  C 475.64 463.29 414.60 482.55 355.52 505.11
  C 325.03 516.76 295.10 530.69 268.02 548.20
  C 233.27 570.66 202.27 602.43 190.25 642.49
  C 189.05 646.50 188.45 650.50 187.53 654.60
  Q 186.52 659.09 186.34 664.08
  Q 185.93 675.80 186.68 681.45
  C 190.64 711.60 206.31 737.59 227.15 760.01
  Q 242.16 776.15 258.42 790.30
  C 284.69 813.16 315.39 838.54 343.10 863.40
  Q 358.16 876.91 370.48 888.91
  Q 387.72 905.70 403.08 926.00
  Q 415.78 942.78 426.88 964.74
  C 435.16 981.13 442.37 997.29 447.03 1014.76
  C 448.32 1019.61 448.98 1024.34 449.91 1029.28
  Q 450.90 1034.53 451.16 1039.66
  Q 451.51 1046.55 452.21 1054.21
  Q 453.56 1069.17 452.05 1083.76
  Q 451.54 1088.66 451.20 1094.27
  Q 450.91 1099.19 449.87 1104.79
  Q 442.03 1146.77 421.57 1186.78
  Q 412.89 1203.73 399.95 1219.35
  A 0.87 0.87 0.0 0 0 400.13 1220.63
  Q 420.15 1234.00 441.01 1246.34
  Q 474.67 1266.24 508.58 1284.75
  Q 526.36 1294.46 545.65 1303.52
  Q 549.04 1305.12 551.30 1304.05
  Q 566.51 1296.89 583.09 1288.09
  Q 643.78 1255.87 702.11 1213.90
  Q 772.88 1162.98 834.20 1101.81
  A 1.96 1.94 68.0 0 0 834.78 1100.42
  Q 834.89 1076.91 834.72 1055.13
  Q 834.69 1050.16 833.64 1044.78
  C 832.84 1040.69 832.82 1036.64 832.23 1032.49
  Q 826.98 995.94 809.47 961.53
  Q 790.08 923.43 761.13 893.07
  C 738.44 869.27 712.86 849.33 683.27 829.70
  C 648.54 806.65 608.53 785.63 570.55 766.64
  Q 527.81 745.27 510.78 736.12
  C 486.90 723.28 461.88 708.61 446.23 686.41
  C 441.74 680.04 439.19 673.65 437.87 665.70
  Q 436.65 658.34 436.80 655.69
  Q 438.10 632.78 454.83 615.37
  Q 470.64 598.91 488.78 587.37
  Q 506.97 575.80 534.45 563.17
  Q 564.94 549.15 592.89 537.84
  Q 637.41 519.82 681.32 501.91
  Q 698.35 494.97 719.01 485.11
  Q 736.36 476.84 750.97 467.88
  C 768.40 457.21 782.50 443.10 789.56 424.03
  C 792.48 416.14 792.35 407.83 791.17 399.54
  Q 789.00 384.35 777.74 371.82
  C 762.94 355.33 744.00 343.80 723.64 335.01
  Q 701.39 325.40 677.98 318.02
  Q 656.95 311.40 633.66 304.44
  Q 615.82 299.11 601.62 290.67
  Q 595.31 286.92 591.96 280.78
  Q 589.31 275.91 592.25 270.09
  C 597.40 259.90 609.36 254.23 619.58 250.57
  Q 640.18 243.20 665.52 236.42
  Q 702.41 226.54 732.00 219.01
  A 3.84 3.84 0.0 0 1 734.12 219.08
  Q 738.40 220.48 743.29 220.73
  C 746.86 220.92 750.15 222.12 753.68 222.50
  Q 757.33 222.90 761.32 223.67
  C 770.14 225.39 779.09 227.05 787.85 229.10
  C 865.62 247.23 942.26 270.61 1016.76 299.57
  Q 1018.47 300.23 1020.53 300.68
  Q 1021.67 300.93 1021.68 299.76
  Q 1021.85 285.02 1021.70 269.06
  Q 1021.66 263.93 1020.82 259.13
  C 1018.62 246.57 1008.88 238.94 997.18 234.25
  Q 988.69 230.85 979.52 228.42
  C 861.34 197.11 748.27 163.25 636.16 123.31
  C 610.42 114.13 584.87 104.35 559.16 94.67
  C 555.98 93.47 551.33 91.47 547.88 91.88
  Q 545.84 92.13 544.10 92.79
  Q 489.28 113.50 439.05 130.65
  Q 376.13 152.12 312.60 172.19
  C 288.06 179.94 263.38 187.05 238.33 194.61
  Q 227.87 197.77 219.12 200.19
  C 179.21 211.22 141.82 221.36 103.27 232.56
  C 90.59 236.24 81.26 241.94 76.86 254.93
  Q 75.32 259.49 75.35 268.15
  Q 75.42 285.70 75.54 297.88
  Q 75.57 299.97 76.55 302.00
  A 0.65 0.65 0.0 0 0 77.26 302.35
  Q 79.48 301.92 81.67 300.99
  Q 120.28 284.65 166.53 269.69
  Q 250.70 242.46 340.55 223.27
  Q 342.45 222.86 344.37 222.59
  C 347.60 222.13 350.59 220.97 353.85 220.61
  C 357.12 220.26 360.12 219.01 363.38 218.66
  C 367.30 218.23 370.93 216.93 374.81 216.53
  Q 378.69 216.13 382.78 215.03
  C 385.40 214.33 388.29 214.43 391.00 213.81
  Q 396.22 212.60 401.41 212.11
  C 404.60 211.81 407.68 210.71 410.88 210.52
  C 416.45 210.18 421.78 208.56 427.30 208.29
  C 433.47 207.99 439.43 206.34 445.60 206.22
  C 453.81 206.07 461.72 204.26 470.01 204.21
  Q 480.85 204.15 492.46 202.96
  C 502.84 201.89 512.75 202.42 523.03 202.02
  Q 557.49 200.69 571.11 200.88
  Q 587.05 201.11 604.73 202.54
  Q 606.04 202.65 607.12 203.06" />
    <path fill="white" stroke="white" vector-effect="non-scaling-stroke" d="
  M 559.17 323.65
  C 561.82 324.87 564.46 326.53 567.21 327.23
  Q 568.27 327.50 569.15 326.74
  Q 574.46 322.15 578.63 317.51
  A 0.98 0.98 0.0 0 0 578.21 315.93
  C 564.35 311.36 549.79 304.65 541.16 293.24
  C 536.57 287.17 535.35 278.83 539.57 272.35
  C 543.95 265.63 551.81 261.19 558.49 257.22
  Q 562.13 255.06 565.44 251.23
  Q 565.85 250.76 565.41 250.31
  L 561.83 246.71
  Q 561.28 246.15 560.54 246.41
  C 546.78 251.25 535.09 256.60 524.52 266.68
  C 506.37 283.98 522.27 302.70 538.24 312.52
  Q 547.57 318.26 559.17 323.65" />
    <path fill="white" stroke="white" vector-effect="non-scaling-stroke" d="
  M 647.14 359.57
  Q 661.95 366.29 671.60 376.24
  C 678.13 382.96 683.44 393.37 681.83 402.73
  C 680.97 407.74 678.89 411.92 678.25 416.76
  A 0.75 0.74 -83.2 0 0 678.91 417.60
  Q 687.84 418.55 696.82 419.78
  Q 700.58 420.30 704.73 419.69
  A 0.77 0.77 0.0 0 0 705.39 418.96
  C 705.50 416.08 707.19 414.06 707.66 411.33
  C 708.38 407.17 709.67 403.38 709.33 398.96
  Q 707.51 375.52 687.84 362.87
  Q 670.97 352.01 651.84 344.57
  C 643.73 341.41 639.00 348.03 634.17 353.09
  A 0.27 0.27 0.0 0 0 634.25 353.52
  Q 640.69 356.64 647.14 359.57" />
    <path fill="white" stroke="white" vector-effect="non-scaling-stroke" d="
  M 608.76 480.18
  C 627.24 472.46 645.13 464.73 663.51 457.06
  Q 666.56 455.79 669.24 454.09
  Q 669.61 453.86 669.24 453.62
  Q 662.13 449.20 655.52 445.23
  C 650.58 442.27 646.99 444.25 642.26 446.13
  Q 616.73 456.26 588.91 467.14
  Q 587.24 467.79 588.71 468.81
  Q 596.08 473.88 603.06 478.42
  C 604.76 479.52 606.92 480.95 608.76 480.18" />
    <path fill="white" stroke="white" vector-effect="non-scaling-stroke" d="
  M 409.96 553.78
  C 440.61 536.76 471.72 523.79 506.15 510.39
  Q 510.18 508.83 514.22 506.27
  A 1.52 1.52 0.0 0 0 514.50 503.93
  Q 508.21 497.46 501.28 493.24
  C 499.50 492.15 497.22 492.54 495.39 493.13
  Q 457.14 505.57 419.90 522.20
  Q 389.94 535.58 364.25 551.97
  Q 340.62 567.04 323.61 585.38
  Q 318.91 590.45 315.39 595.44
  Q 314.89 596.15 314.69 596.96
  Q 314.51 597.72 315.18 597.32
  C 315.66 597.03 316.31 596.91 316.86 596.93
  Q 330.80 597.48 344.49 598.47
  C 346.49 598.61 349.80 598.97 351.42 597.51
  C 358.99 590.72 366.10 583.76 374.16 577.41
  Q 390.28 564.71 409.96 553.78" />
    <path fill="white" stroke="white" vector-effect="non-scaling-stroke" d="
  M 371.19 765.96
  C 382.62 760.54 394.00 754.96 405.23 749.69
  Q 406.63 749.03 405.45 748.03
  C 387.18 732.53 368.90 716.15 354.11 698.90
  Q 348.22 692.03 343.38 684.36
  Q 337.04 674.30 334.83 662.65
  Q 333.92 657.86 333.95 648.40
  Q 333.98 640.83 333.46 634.08
  Q 333.42 633.56 332.90 633.54
  C 321.59 633.21 310.02 633.03 298.89 634.62
  C 296.98 634.90 296.39 636.22 296.10 637.95
  Q 294.21 649.27 295.79 659.07
  C 296.56 663.88 296.93 668.71 298.12 673.37
  C 303.04 692.78 312.67 709.47 325.83 724.44
  Q 334.66 734.49 343.03 743.46
  C 350.36 751.32 358.56 758.55 367.02 765.31
  C 368.36 766.38 369.54 766.74 371.19 765.96" />
  <path fill="white" stroke="white" vector-effect="non-scaling-stroke" d="
  M 545.76 919.91
  C 564.02 945.28 578.02 971.85 585.67 1001.36
  C 587.45 1008.22 588.54 1015.18 589.89 1022.27
  C 590.69 1026.47 590.53 1030.55 590.93 1034.77
  A 0.73 0.72 2.7 0 0 591.52 1035.41
  Q 592.97 1035.68 594.31 1035.69
  Q 625.62 1035.82 655.85 1035.73
  A 0.61 0.60 1.5 0 0 656.46 1035.16
  Q 656.58 1033.09 656.22 1030.97
  Q 655.14 1024.59 654.08 1017.77
  Q 652.75 1009.24 648.72 996.92
  Q 637.14 961.56 617.57 927.43
  Q 607.72 910.25 594.13 894.54
  Q 566.82 862.98 537.38 837.84
  Q 529.28 830.93 520.92 825.79
  C 519.54 824.94 517.87 824.70 516.35 825.40
  Q 496.38 834.63 477.16 845.56
  Q 476.72 845.81 476.91 846.29
  Q 477.49 847.77 478.58 848.71
  Q 508.62 874.55 533.41 903.95
  Q 539.30 910.95 545.76 919.91" />
  <path fill="white" stroke="white" vector-effect="non-scaling-stroke" d="
  M 572.29 1159.06
  Q 562.32 1181.75 551.35 1202.59
  A 1.35 1.35 0.0 0 0 552.40 1204.56
  Q 563.14 1205.69 573.45 1205.92
  Q 598.86 1206.47 622.44 1206.12
  A 3.27 3.27 0.0 0 0 625.35 1204.25
  Q 632.62 1188.64 639.32 1171.23
  C 645.03 1156.40 649.35 1139.50 653.58 1123.32
  C 654.20 1120.97 654.54 1118.53 655.53 1116.34
  A 0.35 0.35 0.0 0 0 655.25 1115.85
  Q 652.52 1115.58 649.78 1115.58
  Q 622.92 1115.56 589.72 1115.75
  A 2.84 2.83 7.6 0 0 587.00 1117.83
  Q 581.28 1138.60 572.29 1159.06" />
  </g>
  <path fill="#121715" d="
  M 507.11 1356.94
  Q 498.45 1352.80 489.99 1348.17
  Q 448.77 1325.66 419.91 1308.72
  Q 401.10 1297.67 371.55 1278.07
  Q 362.72 1272.21 355.09 1266.65
  C 320.11 1241.18 294.79 1222.12 267.01 1197.11
  Q 257.40 1188.46 247.55 1179.56
  C 238.83 1171.68 230.46 1163.14 222.16 1154.81
  Q 216.60 1149.21 211.15 1143.08
  Q 175.07 1102.48 149.96 1067.61
  C 122.93 1030.07 99.60 989.30 80.48 948.39
  Q 70.75 927.57 59.96 900.38
  Q 53.14 883.21 44.87 857.34
  Q 41.84 847.87 39.27 838.00
  Q 30.78 805.40 25.28 772.08
  C 24.47 767.15 24.00 761.81 22.97 756.78
  Q 22.36 753.79 22.11 750.63
  Q 21.70 745.31 20.64 739.91
  C 19.76 735.43 20.09 730.84 19.06 726.40
  Q 18.16 722.52 17.94 718.46
  C 17.75 714.85 17.87 711.31 17.12 707.74
  Q 15.80 701.46 15.84 697.50
  Q 15.95 686.43 14.38 674.53
  C 13.77 669.91 13.72 663.07 13.73 657.48
  Q 13.83 459.50 13.73 261.33
  Q 13.73 248.65 14.92 241.89
  Q 18.97 218.79 33.71 201.52
  Q 46.48 186.57 66.89 177.28
  Q 73.31 174.36 85.86 171.04
  C 108.51 165.06 131.65 159.46 154.62 152.66
  Q 175.30 146.54 196.81 140.82
  Q 206.71 138.19 216.19 135.30
  Q 232.88 130.22 249.61 125.51
  Q 259.93 122.61 268.66 119.97
  Q 307.19 108.29 320.01 104.27
  Q 349.05 95.17 384.04 82.79
  C 405.76 75.11 427.88 68.45 449.52 60.10
  Q 476.06 49.87 502.52 39.98
  C 513.51 35.88 524.33 31.35 535.28 27.12
  C 542.57 24.30 548.79 22.81 556.56 25.42
  Q 565.29 28.36 571.23 30.73
  Q 620.23 50.25 669.72 68.19
  Q 679.23 71.64 688.68 74.73
  Q 709.11 81.43 727.69 88.06
  C 736.79 91.31 746.19 93.89 755.46 97.03
  Q 775.16 103.71 795.92 109.95
  Q 805.13 112.72 815.02 115.88
  Q 837.18 122.96 860.60 129.38
  C 866.33 130.95 871.68 132.83 877.42 134.38
  Q 891.29 138.11 904.78 142.16
  C 922.82 147.58 941.04 152.23 959.21 157.04
  Q 968.92 159.61 978.58 162.00
  Q 996.71 166.49 1012.24 171.03
  C 1019.92 173.27 1027.90 175.98 1035.01 179.51
  Q 1052.79 188.35 1066.43 205.46
  C 1078.87 221.06 1083.43 240.23 1083.43 259.85
  Q 1083.48 468.37 1083.44 677.41
  Q 1083.44 683.83 1082.75 691.22
  Q 1081.01 709.59 1078.65 727.41
  Q 1076.27 745.33 1070.71 776.64
  Q 1068.89 786.90 1066.89 796.27
  Q 1057.41 840.45 1045.25 875.90
  Q 1040.98 888.34 1033.56 907.02
  Q 1014.55 954.85 994.92 990.26
  Q 979.83 1017.49 955.56 1054.08
  C 947.07 1066.88 937.55 1079.12 928.57 1091.18
  Q 915.27 1109.04 894.18 1131.57
  C 888.46 1137.68 883.34 1144.24 877.42 1150.20
  C 864.90 1162.79 853.36 1174.88 840.10 1186.46
  Q 825.71 1199.03 812.16 1210.91
  Q 803.28 1218.70 769.23 1244.98
  Q 737.50 1269.47 700.13 1293.42
  C 683.32 1304.19 668.22 1314.01 651.79 1323.50
  Q 616.77 1343.73 586.02 1359.17
  C 575.68 1364.36 564.35 1369.26 552.49 1370.22
  Q 546.08 1370.74 538.57 1369.22
  C 527.55 1366.98 519.34 1362.79 507.11 1356.94
  Z
  M 607.12 203.06
  A 0.27 0.27 0.0 0 1 607.08 203.57
  Q 604.49 204.12 602.15 205.03
  Q 600.33 205.75 598.19 206.34
  Q 581.72 210.92 564.03 216.18
  Q 530.68 226.09 507.64 236.43
  C 496.17 241.58 485.10 247.53 475.78 255.99
  Q 461.33 269.12 463.32 287.77
  Q 464.16 295.67 468.12 301.71
  C 475.37 312.76 486.80 321.07 498.14 328.12
  C 516.77 339.69 535.76 348.80 556.60 359.32
  Q 567.51 364.83 576.61 370.52
  C 586.03 376.42 593.65 383.09 596.54 394.04
  C 600.23 408.03 586.78 420.62 575.33 426.55
  C 563.18 432.85 548.57 438.04 534.80 442.81
  C 475.64 463.29 414.60 482.55 355.52 505.11
  C 325.03 516.76 295.10 530.69 268.02 548.20
  C 233.27 570.66 202.27 602.43 190.25 642.49
  C 189.05 646.50 188.45 650.50 187.53 654.60
  Q 186.52 659.09 186.34 664.08
  Q 185.93 675.80 186.68 681.45
  C 190.64 711.60 206.31 737.59 227.15 760.01
  Q 242.16 776.15 258.42 790.30
  C 284.69 813.16 315.39 838.54 343.10 863.40
  Q 358.16 876.91 370.48 888.91
  Q 387.72 905.70 403.08 926.00
  Q 415.78 942.78 426.88 964.74
  C 435.16 981.13 442.37 997.29 447.03 1014.76
  C 448.32 1019.61 448.98 1024.34 449.91 1029.28
  Q 450.90 1034.53 451.16 1039.66
  Q 451.51 1046.55 452.21 1054.21
  Q 453.56 1069.17 452.05 1083.76
  Q 451.54 1088.66 451.20 1094.27
  Q 450.91 1099.19 449.87 1104.79
  Q 442.03 1146.77 421.57 1186.78
  Q 412.89 1203.73 399.95 1219.35
  A 0.87 0.87 0.0 0 0 400.13 1220.63
  Q 420.15 1234.00 441.01 1246.34
  Q 474.67 1266.24 508.58 1284.75
  Q 526.36 1294.46 545.65 1303.52
  Q 549.04 1305.12 551.30 1304.05
  Q 566.51 1296.89 583.09 1288.09
  Q 643.78 1255.87 702.11 1213.90
  Q 772.88 1162.98 834.20 1101.81
  A 1.96 1.94 68.0 0 0 834.78 1100.42
  Q 834.89 1076.91 834.72 1055.13
  Q 834.69 1050.16 833.64 1044.78
  C 832.84 1040.69 832.82 1036.64 832.23 1032.49
  Q 826.98 995.94 809.47 961.53
  Q 790.08 923.43 761.13 893.07
  C 738.44 869.27 712.86 849.33 683.27 829.70
  C 648.54 806.65 608.53 785.63 570.55 766.64
  Q 527.81 745.27 510.78 736.12
  C 486.90 723.28 461.88 708.61 446.23 686.41
  C 441.74 680.04 439.19 673.65 437.87 665.70
  Q 436.65 658.34 436.80 655.69
  Q 438.10 632.78 454.83 615.37
  Q 470.64 598.91 488.78 587.37
  Q 506.97 575.80 534.45 563.17
  Q 564.94 549.15 592.89 537.84
  Q 637.41 519.82 681.32 501.91
  Q 698.35 494.97 719.01 485.11
  Q 736.36 476.84 750.97 467.88
  C 768.40 457.21 782.50 443.10 789.56 424.03
  C 792.48 416.14 792.35 407.83 791.17 399.54
  Q 789.00 384.35 777.74 371.82
  C 762.94 355.33 744.00 343.80 723.64 335.01
  Q 701.39 325.40 677.98 318.02
  Q 656.95 311.40 633.66 304.44
  Q 615.82 299.11 601.62 290.67
  Q 595.31 286.92 591.96 280.78
  Q 589.31 275.91 592.25 270.09
  C 597.40 259.90 609.36 254.23 619.58 250.57
  Q 640.18 243.20 665.52 236.42
  Q 702.41 226.54 732.00 219.01
  A 3.84 3.84 0.0 0 1 734.12 219.08
  Q 738.40 220.48 743.29 220.73
  C 746.86 220.92 750.15 222.12 753.68 222.50
  Q 757.33 222.90 761.32 223.67
  C 770.14 225.39 779.09 227.05 787.85 229.10
  C 865.62 247.23 942.26 270.61 1016.76 299.57
  Q 1018.47 300.23 1020.53 300.68
  Q 1021.67 300.93 1021.68 299.76
  Q 1021.85 285.02 1021.70 269.06
  Q 1021.66 263.93 1020.82 259.13
  C 1018.62 246.57 1008.88 238.94 997.18 234.25
  Q 988.69 230.85 979.52 228.42
  C 861.34 197.11 748.27 163.25 636.16 123.31
  C 610.42 114.13 584.87 104.35 559.16 94.67
  C 555.98 93.47 551.33 91.47 547.88 91.88
  Q 545.84 92.13 544.10 92.79
  Q 489.28 113.50 439.05 130.65
  Q 376.13 152.12 312.60 172.19
  C 288.06 179.94 263.38 187.05 238.33 194.61
  Q 227.87 197.77 219.12 200.19
  C 179.21 211.22 141.82 221.36 103.27 232.56
  C 90.59 236.24 81.26 241.94 76.86 254.93
  Q 75.32 259.49 75.35 268.15
  Q 75.42 285.70 75.54 297.88
  Q 75.57 299.97 76.55 302.00
  A 0.65 0.65 0.0 0 0 77.26 302.35
  Q 79.48 301.92 81.67 300.99
  Q 120.28 284.65 166.53 269.69
  Q 250.70 242.46 340.55 223.27
  Q 342.45 222.86 344.37 222.59
  C 347.60 222.13 350.59 220.97 353.85 220.61
  C 357.12 220.26 360.12 219.01 363.38 218.66
  C 367.30 218.23 370.93 216.93 374.81 216.53
  Q 378.69 216.13 382.78 215.03
  C 385.40 214.33 388.29 214.43 391.00 213.81
  Q 396.22 212.60 401.41 212.11
  C 404.60 211.81 407.68 210.71 410.88 210.52
  C 416.45 210.18 421.78 208.56 427.30 208.29
  C 433.47 207.99 439.43 206.34 445.60 206.22
  C 453.81 206.07 461.72 204.26 470.01 204.21
  Q 480.85 204.15 492.46 202.96
  C 502.84 201.89 512.75 202.42 523.03 202.02
  Q 557.49 200.69 571.11 200.88
  Q 587.05 201.11 604.73 202.54
  Q 606.04 202.65 607.12 203.06
  Z" />
  <path fill="#ffffff" d="
  M 607.12 203.06
  Q 606.04 202.65 604.73 202.54
  Q 587.05 201.11 571.11 200.88
  Q 557.49 200.69 523.03 202.02
  C 512.75 202.42 502.84 201.89 492.46 202.96
  Q 480.85 204.15 470.01 204.21
  C 461.72 204.26 453.81 206.07 445.60 206.22
  C 439.43 206.34 433.47 207.99 427.30 208.29
  C 421.78 208.56 416.45 210.18 410.88 210.52
  C 407.68 210.71 404.60 211.81 401.41 212.11
  Q 396.22 212.60 391.00 213.81
  C 388.29 214.43 385.40 214.33 382.78 215.03
  Q 378.69 216.13 374.81 216.53
  C 370.93 216.93 367.30 218.23 363.38 218.66
  C 360.12 219.01 357.12 220.26 353.85 220.61
  C 350.59 220.97 347.60 222.13 344.37 222.59
  Q 342.45 222.86 340.55 223.27
  Q 250.70 242.46 166.53 269.69
  Q 120.28 284.65 81.67 300.99
  Q 79.48 301.92 77.26 302.35
  A 0.65 0.65 0.0 0 1 76.55 302.00
  Q 75.57 299.97 75.54 297.88
  Q 75.42 285.70 75.35 268.15
  Q 75.32 259.49 76.86 254.93
  C 81.26 241.94 90.59 236.24 103.27 232.56
  C 141.82 221.36 179.21 211.22 219.12 200.19
  Q 227.87 197.77 238.33 194.61
  C 263.38 187.05 288.06 179.94 312.60 172.19
  Q 376.13 152.12 439.05 130.65
  Q 489.28 113.50 544.10 92.79
  Q 545.84 92.13 547.88 91.88
  C 551.33 91.47 555.98 93.47 559.16 94.67
  C 584.87 104.35 610.42 114.13 636.16 123.31
  C 748.27 163.25 861.34 197.11 979.52 228.42
  Q 988.69 230.85 997.18 234.25
  C 1008.88 238.94 1018.62 246.57 1020.82 259.13
  Q 1021.66 263.93 1021.70 269.06
  Q 1021.85 285.02 1021.68 299.76
  Q 1021.67 300.93 1020.53 300.68
  Q 1018.47 300.23 1016.76 299.57
  C 942.26 270.61 865.62 247.23 787.85 229.10
  C 779.09 227.05 770.14 225.39 761.32 223.67
  Q 757.33 222.90 753.68 222.50
  C 750.15 222.12 746.86 220.92 743.29 220.73
  Q 738.40 220.48 734.12 219.08
  A 3.84 3.84 0.0 0 0 732.00 219.01
  Q 702.41 226.54 665.52 236.42
  Q 640.18 243.20 619.58 250.57
  C 609.36 254.23 597.40 259.90 592.25 270.09
  Q 589.31 275.91 591.96 280.78
  Q 595.31 286.92 601.62 290.67
  Q 615.82 299.11 633.66 304.44
  Q 656.95 311.40 677.98 318.02
  Q 701.39 325.40 723.64 335.01
  C 744.00 343.80 762.94 355.33 777.74 371.82
  Q 789.00 384.35 791.17 399.54
  C 792.35 407.83 792.48 416.14 789.56 424.03
  C 782.50 443.10 768.40 457.21 750.97 467.88
  Q 736.36 476.84 719.01 485.11
  Q 698.35 494.97 681.32 501.91
  Q 637.41 519.82 592.89 537.84
  Q 564.94 549.15 534.45 563.17
  Q 506.97 575.80 488.78 587.37
  Q 470.64 598.91 454.83 615.37
  Q 438.10 632.78 436.80 655.69
  Q 436.65 658.34 437.87 665.70
  C 439.19 673.65 441.74 680.04 446.23 686.41
  C 461.88 708.61 486.90 723.28 510.78 736.12
  Q 527.81 745.27 570.55 766.64
  C 608.53 785.63 648.54 806.65 683.27 829.70
  C 712.86 849.33 738.44 869.27 761.13 893.07
  Q 790.08 923.43 809.47 961.53
  Q 826.98 995.94 832.23 1032.49
  C 832.82 1036.64 832.84 1040.69 833.64 1044.78
  Q 834.69 1050.16 834.72 1055.13
  Q 834.89 1076.91 834.78 1100.42
  A 1.96 1.94 68.0 0 1 834.20 1101.81
  Q 772.88 1162.98 702.11 1213.90
  Q 643.78 1255.87 583.09 1288.09
  Q 566.51 1296.89 551.30 1304.05
  Q 549.04 1305.12 545.65 1303.52
  Q 526.36 1294.46 508.58 1284.75
  Q 474.67 1266.24 441.01 1246.34
  Q 420.15 1234.00 400.13 1220.63
  A 0.87 0.87 0.0 0 1 399.95 1219.35
  Q 412.89 1203.73 421.57 1186.78
  Q 442.03 1146.77 449.87 1104.79
  Q 450.91 1099.19 451.20 1094.27
  Q 451.54 1088.66 452.05 1083.76
  Q 453.56 1069.17 452.21 1054.21
  Q 451.51 1046.55 451.16 1039.66
  Q 450.90 1034.53 449.91 1029.28
  C 448.98 1024.34 448.32 1019.61 447.03 1014.76
  C 442.37 997.29 435.16 981.13 426.88 964.74
  Q 415.78 942.78 403.08 926.00
  Q 387.72 905.70 370.48 888.91
  Q 358.16 876.91 343.10 863.40
  C 315.39 838.54 284.69 813.16 258.42 790.30
  Q 242.16 776.15 227.15 760.01
  C 206.31 737.59 190.64 711.60 186.68 681.45
  Q 185.93 675.80 186.34 664.08
  Q 186.52 659.09 187.53 654.60
  C 188.45 650.50 189.05 646.50 190.25 642.49
  C 202.27 602.43 233.27 570.66 268.02 548.20
  C 295.10 530.69 325.03 516.76 355.52 505.11
  C 414.60 482.55 475.64 463.29 534.80 442.81
  C 548.57 438.04 563.18 432.85 575.33 426.55
  C 586.78 420.62 600.23 408.03 596.54 394.04
  C 593.65 383.09 586.03 376.42 576.61 370.52
  Q 567.51 364.83 556.60 359.32
  C 535.76 348.80 516.77 339.69 498.14 328.12
  C 486.80 321.07 475.37 312.76 468.12 301.71
  Q 464.16 295.67 463.32 287.77
  Q 461.33 269.12 475.78 255.99
  C 485.10 247.53 496.17 241.58 507.64 236.43
  Q 530.68 226.09 564.03 216.18
  Q 581.72 210.92 598.19 206.34
  Q 600.33 205.75 602.15 205.03
  Q 604.49 204.12 607.08 203.57
  A 0.27 0.27 0.0 0 0 607.12 203.06
  Z
  M 559.17 323.65
  C 561.82 324.87 564.46 326.53 567.21 327.23
  Q 568.27 327.50 569.15 326.74
  Q 574.46 322.15 578.63 317.51
  A 0.98 0.98 0.0 0 0 578.21 315.93
  C 564.35 311.36 549.79 304.65 541.16 293.24
  C 536.57 287.17 535.35 278.83 539.57 272.35
  C 543.95 265.63 551.81 261.19 558.49 257.22
  Q 562.13 255.06 565.44 251.23
  Q 565.85 250.76 565.41 250.31
  L 561.83 246.71
  Q 561.28 246.15 560.54 246.41
  C 546.78 251.25 535.09 256.60 524.52 266.68
  C 506.37 283.98 522.27 302.70 538.24 312.52
  Q 547.57 318.26 559.17 323.65
  Z
  M 647.14 359.57
  Q 661.95 366.29 671.60 376.24
  C 678.13 382.96 683.44 393.37 681.83 402.73
  C 680.97 407.74 678.89 411.92 678.25 416.76
  A 0.75 0.74 -83.2 0 0 678.91 417.60
  Q 687.84 418.55 696.82 419.78
  Q 700.58 420.30 704.73 419.69
  A 0.77 0.77 0.0 0 0 705.39 418.96
  C 705.50 416.08 707.19 414.06 707.66 411.33
  C 708.38 407.17 709.67 403.38 709.33 398.96
  Q 707.51 375.52 687.84 362.87
  Q 670.97 352.01 651.84 344.57
  C 643.73 341.41 639.00 348.03 634.17 353.09
  A 0.27 0.27 0.0 0 0 634.25 353.52
  Q 640.69 356.64 647.14 359.57
  Z
  M 608.76 480.18
  C 627.24 472.46 645.13 464.73 663.51 457.06
  Q 666.56 455.79 669.24 454.09
  Q 669.61 453.86 669.24 453.62
  Q 662.13 449.20 655.52 445.23
  C 650.58 442.27 646.99 444.25 642.26 446.13
  Q 616.73 456.26 588.91 467.14
  Q 587.24 467.79 588.71 468.81
  Q 596.08 473.88 603.06 478.42
  C 604.76 479.52 606.92 480.95 608.76 480.18
  Z
  M 409.96 553.78
  C 440.61 536.76 471.72 523.79 506.15 510.39
  Q 510.18 508.83 514.22 506.27
  A 1.52 1.52 0.0 0 0 514.50 503.93
  Q 508.21 497.46 501.28 493.24
  C 499.50 492.15 497.22 492.54 495.39 493.13
  Q 457.14 505.57 419.90 522.20
  Q 389.94 535.58 364.25 551.97
  Q 340.62 567.04 323.61 585.38
  Q 318.91 590.45 315.39 595.44
  Q 314.89 596.15 314.69 596.96
  Q 314.51 597.72 315.18 597.32
  C 315.66 597.03 316.31 596.91 316.86 596.93
  Q 330.80 597.48 344.49 598.47
  C 346.49 598.61 349.80 598.97 351.42 597.51
  C 358.99 590.72 366.10 583.76 374.16 577.41
  Q 390.28 564.71 409.96 553.78
  Z
  M 371.19 765.96
  C 382.62 760.54 394.00 754.96 405.23 749.69
  Q 406.63 749.03 405.45 748.03
  C 387.18 732.53 368.90 716.15 354.11 698.90
  Q 348.22 692.03 343.38 684.36
  Q 337.04 674.30 334.83 662.65
  Q 333.92 657.86 333.95 648.40
  Q 333.98 640.83 333.46 634.08
  Q 333.42 633.56 332.90 633.54
  C 321.59 633.21 310.02 633.03 298.89 634.62
  C 296.98 634.90 296.39 636.22 296.10 637.95
  Q 294.21 649.27 295.79 659.07
  C 296.56 663.88 296.93 668.71 298.12 673.37
  C 303.04 692.78 312.67 709.47 325.83 724.44
  Q 334.66 734.49 343.03 743.46
  C 350.36 751.32 358.56 758.55 367.02 765.31
  C 368.36 766.38 369.54 766.74 371.19 765.96
  Z
  M 545.76 919.91
  C 564.02 945.28 578.02 971.85 585.67 1001.36
  C 587.45 1008.22 588.54 1015.18 589.89 1022.27
  C 590.69 1026.47 590.53 1030.55 590.93 1034.77
  A 0.73 0.72 2.7 0 0 591.52 1035.41
  Q 592.97 1035.68 594.31 1035.69
  Q 625.62 1035.82 655.85 1035.73
  A 0.61 0.60 1.5 0 0 656.46 1035.16
  Q 656.58 1033.09 656.22 1030.97
  Q 655.14 1024.59 654.08 1017.77
  Q 652.75 1009.24 648.72 996.92
  Q 637.14 961.56 617.57 927.43
  Q 607.72 910.25 594.13 894.54
  Q 566.82 862.98 537.38 837.84
  Q 529.28 830.93 520.92 825.79
  C 519.54 824.94 517.87 824.70 516.35 825.40
  Q 496.38 834.63 477.16 845.56
  Q 476.72 845.81 476.91 846.29
  Q 477.49 847.77 478.58 848.71
  Q 508.62 874.55 533.41 903.95
  Q 539.30 910.95 545.76 919.91
  Z
  M 572.29 1159.06
  Q 562.32 1181.75 551.35 1202.59
  A 1.35 1.35 0.0 0 0 552.40 1204.56
  Q 563.14 1205.69 573.45 1205.92
  Q 598.86 1206.47 622.44 1206.12
  A 3.27 3.27 0.0 0 0 625.35 1204.25
  Q 632.62 1188.64 639.32 1171.23
  C 645.03 1156.40 649.35 1139.50 653.58 1123.32
  C 654.20 1120.97 654.54 1118.53 655.53 1116.34
  A 0.35 0.35 0.0 0 0 655.25 1115.85
  Q 652.52 1115.58 649.78 1115.58
  Q 622.92 1115.56 589.72 1115.75
  A 2.84 2.83 7.6 0 0 587.00 1117.83
  Q 581.28 1138.60 572.29 1159.06
  Z" />
</svg>