<svg width="620" height="780" viewBox="0 0 620 780" fill="none" xmlns="http://www.w3.org/2000/svg">
<path d="M285.957 772.229C282.611 770.63 279.303 768.936 276.034 767.148C260.107 758.454 246.568 750.835 235.417 744.292C228.149 740.024 218.806 734.105 207.388 726.534C203.976 724.271 200.796 722.065 197.848 719.918C177.574 705.161 162.899 694.118 146.798 679.628C143.085 676.287 139.325 672.898 135.519 669.46C130.465 664.895 125.614 659.947 120.804 655.121C118.655 652.958 116.528 650.692 114.423 648.325C100.482 632.643 88.6599 618.068 78.9576 604.6C63.2914 582.85 49.7697 559.229 38.688 535.527C34.9284 527.485 30.964 518.213 26.7949 507.711C24.1597 501.079 21.2444 492.767 18.0489 482.775C16.8782 479.117 15.7963 475.382 14.8032 471.57C11.5228 458.978 8.81998 446.248 6.69483 433.378C6.22537 430.522 5.95296 427.428 5.35599 424.514C5.12029 423.359 4.95414 422.171 4.85754 420.951C4.69912 418.896 4.41512 416.825 4.00555 414.74C3.49551 412.144 3.68678 409.485 3.0898 406.912C2.74205 405.414 2.52567 403.88 2.44067 402.312C2.33055 400.221 2.4001 398.17 1.96541 396.101C1.45537 393.676 1.20808 391.698 1.22354 390.168C1.26604 385.893 0.983975 381.457 0.377341 376.86C0.0237937 374.184 -0.005186 370.221 0.000609865 366.982C0.0392489 290.513 0.0392489 214.007 0.000609865 137.464C0.000609865 132.566 0.230513 128.812 0.690318 126.201C2.2552 117.279 5.88534 109.482 11.5807 102.812C16.515 97.0374 22.9252 92.3561 30.8114 88.7678C33.292 87.64 36.957 86.4349 41.8062 85.1525C54.9338 81.6879 68.3454 78.4434 81.6585 74.5037C89.6491 72.1399 97.8 69.8533 106.111 67.6439C109.937 66.6281 113.681 65.5621 117.344 64.4458C123.793 62.4837 130.249 60.593 136.713 58.7737C140.701 57.6536 144.381 56.5837 147.755 55.564C162.642 51.0527 172.563 48.0206 177.516 46.4679C188.737 42.953 201.107 38.8048 214.627 34.023C227.216 29.5734 240.036 25.7148 252.578 20.8771C262.833 16.9258 273.073 13.0401 283.297 9.22009C289.666 6.84467 295.937 4.22015 302.284 1.76941C306.509 0.135584 310.114 -0.727673 314.617 0.784487C317.991 1.92005 320.825 2.94556 323.12 3.86096C342.053 11.4005 361.081 18.6349 380.203 25.5642C383.878 26.8968 387.541 28.1598 391.192 29.3533C399.086 31.9411 406.623 34.5155 413.802 37.0763C419.076 38.9593 424.524 40.454 429.897 42.2733C437.509 44.8534 445.326 47.3485 453.347 49.7587C456.906 50.8286 460.596 51.9739 464.417 53.1944C472.98 55.929 481.786 58.5362 490.835 61.0159C494.156 61.9255 497.257 63.0148 500.583 63.9128C505.943 65.3535 511.229 66.856 516.441 68.4203C526.897 71.5605 537.457 74.2545 547.988 77.0413C551.74 78.034 555.482 78.9919 559.214 79.915C566.22 81.6493 572.723 83.3932 578.723 85.1467C583.174 86.4445 587.8 88.0146 591.92 90.0598C598.79 93.4742 604.861 98.4858 610.131 105.094C617.341 114.133 619.984 125.239 619.984 136.607C620.003 217.147 620.005 297.788 619.99 378.529C619.99 381.009 619.856 383.676 619.59 386.53C618.918 393.625 618.125 400.615 617.214 407.497C616.294 414.419 614.76 423.926 612.612 436.02C611.908 439.983 611.17 443.774 610.398 447.393C606.735 464.457 602.554 479.836 597.855 493.528C596.205 498.333 593.947 504.343 591.08 511.558C583.735 530.033 576.27 546.108 568.685 559.785C562.854 570.303 555.25 582.628 545.872 596.761C540.952 604.177 535.434 611.268 530.229 618.255C525.09 625.154 518.446 632.954 510.297 641.656C506.982 645.196 504.015 648.997 500.583 652.45C493.327 659.744 486.639 666.749 478.953 673.458C473.393 678.313 467.995 683.035 462.76 687.624C459.328 690.632 451.035 697.212 437.878 707.363C425.618 716.822 412.268 726.177 397.829 735.428C388.086 741.667 379.334 747.357 369.811 752.855C356.28 760.669 343.574 767.558 331.692 773.521C325.699 776.528 319.132 779.367 312.258 779.923C309.782 780.124 307.092 779.931 304.191 779.344C297.804 778.046 293.045 775.619 285.957 772.229Z" fill="#FDFDFD"/>
<path d="M285.957 772.229C282.611 770.63 279.303 768.936 276.034 767.148C260.107 758.454 246.568 750.835 235.417 744.292C228.149 740.024 218.806 734.105 207.388 726.534C203.976 724.271 200.796 722.065 197.848 719.918C177.574 705.161 162.899 694.118 146.798 679.628C143.085 676.287 139.325 672.898 135.519 669.46C130.465 664.895 125.614 659.947 120.804 655.121C118.655 652.958 116.528 650.692 114.423 648.325C100.482 632.643 88.6599 618.068 78.9576 604.6C63.2914 582.85 49.7697 559.229 38.688 535.527C34.9284 527.485 30.964 518.213 26.7949 507.711C24.1597 501.079 21.2444 492.767 18.0489 482.775C16.8782 479.117 15.7963 475.382 14.8032 471.57C11.5228 458.978 8.81998 446.248 6.69483 433.378C6.22537 430.522 5.95296 427.428 5.35599 424.514C5.12029 423.359 4.95414 422.171 4.85754 420.95C4.69912 418.896 4.41512 416.825 4.00555 414.74C3.49551 412.144 3.68678 409.485 3.0898 406.912C2.74205 405.414 2.52567 403.88 2.44067 402.312C2.33055 400.221 2.4001 398.17 1.96541 396.101C1.45537 393.676 1.20808 391.698 1.22354 390.168C1.26604 385.893 0.983975 381.457 0.377341 376.86C0.0237936 374.184 -0.005186 370.221 0.000609865 366.982C0.0392489 290.513 0.0392489 214.007 0.000609865 137.464C0.000609865 132.566 0.230513 128.812 0.690318 126.201C2.2552 117.279 5.88534 109.482 11.5807 102.812C16.515 97.0374 22.9252 92.3561 30.8114 88.7678C33.292 87.64 36.957 86.4349 41.8062 85.1525C54.9338 81.6879 68.3454 78.4434 81.6585 74.5037C89.6491 72.1399 97.8 69.8533 106.111 67.644C109.937 66.6281 113.681 65.5621 117.344 64.4458C123.792 62.4837 130.249 60.593 136.713 58.7738C140.701 57.6537 144.381 56.5838 147.755 55.5641C162.642 51.0527 172.563 48.0206 177.516 46.4679C188.737 42.9531 201.107 38.8048 214.627 34.023C227.216 29.5735 240.036 25.7148 252.578 20.8771C262.833 16.9258 273.073 13.0401 283.297 9.22013C289.666 6.84471 295.937 4.22016 302.284 1.76942C306.509 0.135589 310.114 -0.727675 314.617 0.784484C317.991 1.92005 320.825 2.94554 323.12 3.86095C342.053 11.4005 361.081 18.6349 380.203 25.5642C383.878 26.8968 387.541 28.1598 391.192 29.3533C399.086 31.9412 406.623 34.5155 413.802 37.0763C419.076 38.9593 424.524 40.454 429.897 42.2733C437.509 44.8534 445.326 47.3486 453.347 49.7588C456.906 50.8287 460.596 51.9739 464.417 53.1944C472.98 55.9291 481.785 58.5362 490.835 61.0159C494.156 61.9256 497.257 63.0148 500.583 63.9128C505.943 65.3535 511.228 66.856 516.441 68.4203C526.897 71.5605 537.457 74.2546 547.988 77.0414C551.74 78.034 555.482 78.9919 559.214 79.915C566.22 81.6493 572.722 83.3932 578.723 85.1468C583.174 86.4446 587.799 88.0146 591.92 90.0598C598.79 93.4743 604.861 98.4858 610.131 105.095C617.341 114.133 619.984 125.239 619.984 136.607C620.003 217.147 620.005 297.788 619.99 378.529C619.99 381.009 619.856 383.676 619.59 386.53C618.917 393.625 618.125 400.615 617.214 407.497C616.294 414.419 614.76 423.926 612.612 436.02C611.908 439.983 611.17 443.774 610.398 447.393C606.735 464.457 602.554 479.836 597.855 493.528C596.205 498.333 593.947 504.343 591.08 511.558C583.735 530.033 576.27 546.108 568.685 559.785C562.854 570.303 555.25 582.628 545.872 596.761C540.952 604.177 535.434 611.268 530.229 618.255C525.09 625.154 518.446 632.954 510.297 641.656C506.982 645.196 504.015 648.997 500.583 652.45C493.327 659.744 486.639 666.749 478.953 673.458C473.393 678.313 467.995 683.035 462.76 687.624C459.328 690.632 451.035 697.212 437.878 707.363C425.618 716.822 412.268 726.177 397.829 735.428C388.086 741.667 379.334 747.357 369.811 752.855C356.28 760.669 343.574 767.558 331.692 773.521C325.699 776.528 319.132 779.367 312.258 779.923C309.782 780.124 307.092 779.931 304.191 779.344C297.804 778.046 293.045 775.619 285.957 772.229ZM343.921 103.704C343.951 103.717 343.977 103.739 343.994 103.767C344.011 103.795 344.018 103.827 344.016 103.86C344.013 103.893 344 103.924 343.979 103.949C343.958 103.974 343.93 103.991 343.898 104C342.897 104.212 341.945 104.494 341.041 104.845C340.337 105.123 339.572 105.376 338.746 105.604C332.382 107.373 325.782 109.274 318.947 111.305C306.061 115.133 295.166 119.044 286.264 123.038C279.616 126.021 273.2 129.469 267.798 134.37C262.215 139.442 259.808 145.579 260.577 152.783C260.901 155.834 261.829 158.526 263.359 160.859C267.561 167.261 274.185 172.076 280.758 176.16C291.556 182.864 302.562 188.142 314.641 194.237C318.856 196.365 322.722 198.528 326.238 200.726C331.698 204.144 336.114 208.008 337.789 214.352C339.928 222.458 332.132 229.752 325.496 233.188C318.454 236.838 309.986 239.845 302.006 242.608C267.717 254.474 232.339 265.633 198.097 278.703C180.426 285.453 163.079 293.524 147.384 303.668C127.243 316.681 109.276 335.088 102.309 358.297C101.614 360.62 101.266 362.938 100.733 365.313C100.342 367.048 100.113 368.879 100.043 370.806C99.8846 375.333 99.9502 378.687 100.24 380.87C102.535 398.338 111.617 413.395 123.696 426.385C129.496 432.619 135.537 438.469 141.82 443.934C157.045 457.179 174.839 471.883 190.899 486.286C196.718 491.504 202.008 496.431 206.768 501.066C213.429 507.551 219.728 514.714 225.662 522.555C230.57 529.036 235.168 536.518 239.457 545C244.256 554.496 248.434 563.858 251.135 573.98C251.883 576.79 252.265 579.53 252.805 582.392C253.187 584.42 253.429 586.425 253.529 588.406C253.664 591.067 253.867 593.877 254.138 596.836C254.659 602.614 254.628 608.321 254.045 613.956C253.848 615.849 253.684 617.879 253.552 620.046C253.44 621.946 253.183 623.978 252.781 626.141C249.752 642.355 244.285 658.19 236.379 673.643C233.025 680.19 228.848 686.48 223.848 692.513C223.803 692.568 223.77 692.631 223.75 692.698C223.731 692.766 223.726 692.838 223.735 692.907C223.745 692.977 223.77 693.044 223.807 693.104C223.845 693.164 223.894 693.216 223.953 693.255C231.688 698.419 239.586 703.384 247.646 708.151C260.652 715.837 273.706 723.255 286.809 730.404C293.679 734.155 300.841 737.78 308.294 741.279C309.604 741.897 310.695 742 311.569 741.586C317.446 738.821 323.587 735.738 329.994 732.339C353.444 719.895 376.438 705.567 398.976 689.356C426.321 669.688 451.84 648.041 475.534 624.414C475.64 624.309 475.725 624.184 475.782 624.046C475.84 623.908 475.87 623.759 475.87 623.609C475.912 614.528 475.901 605.782 475.835 597.369C475.823 595.449 475.615 593.451 475.209 591.373C474.745 589.003 474.734 586.656 474.392 584.252C472.363 570.135 467.966 556.431 461.2 543.14C453.708 528.424 444.369 515.203 433.183 503.476C420.032 489.687 405.207 478.134 388.057 466.761C367.928 453.407 344.738 441.228 322.726 430.226C306.211 421.972 294.664 416.078 288.084 412.544C274.243 405.105 259.742 396.605 250.672 383.743C248.069 380.053 246.591 376.35 245.826 371.744C245.355 368.902 245.148 366.968 245.206 365.945C245.708 357.096 249.192 349.309 255.656 342.585C261.765 336.227 268.324 330.82 275.333 326.362C282.361 321.893 291.185 317.22 301.803 312.341C313.584 306.926 324.874 302.034 335.674 297.666C352.876 290.706 369.96 283.767 386.927 276.849C393.507 274.169 400.788 270.924 408.771 267.116C415.475 263.921 421.65 260.594 427.295 257.133C437.397 250.951 445.569 242.776 449.661 231.728C451.353 227.156 451.278 222.342 450.594 217.539C449.756 211.672 447.161 206.318 442.81 201.479C434.232 191.925 423.255 185.245 411.455 180.152C402.857 176.44 394.036 173.159 384.991 170.309C376.865 167.752 368.302 165.129 359.303 162.441C352.41 160.382 346.22 157.723 340.734 154.463C338.295 153.014 336.429 151.104 335.135 148.733C334.111 146.852 334.167 144.787 335.303 142.539C338.288 136.635 345.22 133.35 351.143 131.23C359.103 128.383 367.978 125.651 377.769 123.032C392.023 119.216 404.867 115.853 416.3 112.945C416.705 112.843 417.131 112.857 417.529 112.986C419.182 113.526 420.954 113.845 422.843 113.942C424.913 114.052 426.819 114.747 428.865 114.967C430.276 115.122 431.752 115.347 433.293 115.645C438.405 116.641 443.593 117.603 448.67 118.791C493.744 129.295 538.164 142.841 581.343 159.619C582.004 159.874 582.732 160.088 583.528 160.262C583.968 160.359 584.191 160.181 584.194 159.729C584.26 154.036 584.264 148.107 584.206 141.943C584.191 139.961 584.021 138.043 583.696 136.189C582.421 128.912 576.776 124.492 569.995 121.775C566.714 120.461 563.302 119.335 559.759 118.397C491.264 100.257 425.73 80.6393 360.752 57.4992C345.834 52.1805 331.025 46.5143 316.124 40.906C314.281 40.2107 311.586 39.052 309.587 39.2895C308.798 39.3861 308.068 39.5618 307.396 39.8167C286.214 47.8159 265.919 55.1276 246.51 61.7517C222.198 70.0445 197.769 78.0668 173.222 85.8188C158.998 90.309 144.694 94.4283 130.176 98.8083C126.134 100.029 122.423 101.107 119.042 102.041C95.9105 108.432 74.2398 114.307 51.8968 120.795C44.5476 122.928 39.1401 126.23 36.5899 133.756C35.9948 135.517 35.7031 138.07 35.7147 141.415C35.7418 148.194 35.7785 153.936 35.8248 158.64C35.8364 159.447 36.0316 160.243 36.4102 161.027C36.4469 161.101 36.5071 161.162 36.5815 161.198C36.6559 161.235 36.7404 161.246 36.8217 161.23C37.6795 161.064 38.5315 160.801 39.3777 160.442C54.2962 154.131 70.6908 148.086 88.5614 142.308C121.084 131.79 154.704 122.825 189.421 115.413C190.155 115.255 190.893 115.123 191.635 115.019C193.507 114.753 195.24 114.081 197.129 113.872C199.025 113.669 200.763 112.945 202.653 112.742C204.925 112.493 207.029 111.74 209.278 111.508C210.777 111.354 212.317 111.064 213.897 110.639C215.415 110.234 217.09 110.291 218.661 109.932C220.678 109.465 222.689 109.137 224.695 108.947C226.543 108.774 228.329 108.136 230.183 108.026C233.412 107.829 236.501 106.891 239.7 106.734C243.276 106.56 246.73 105.604 250.306 105.535C255.065 105.448 259.649 104.399 264.454 104.37C268.643 104.347 272.98 104.106 277.466 103.646C283.482 103.026 289.226 103.333 295.184 103.101C308.499 102.588 317.788 102.368 323.05 102.441C329.209 102.53 335.705 102.85 342.536 103.403C343.042 103.445 343.504 103.546 343.921 103.704Z" fill="#121715"/>
</svg>
